<?xml version="1.0" ?><svg viewBox="0 0 64 64" xmlns="http://www.w3.org/2000/svg"><defs><style>.cls-1{fill:#0072ff;}</style></defs><title/><g data-name="Layer 2" id="Layer_2"><path class="cls-1" d="M30.92,4c-9.79.52-18.48,9.45-18.75,19.26A19.72,19.72,0,0,0,17.8,37.65a19.54,19.54,0,0,1,5.34,9.88l.14.73A4.62,4.62,0,0,0,27.81,52h8.41a4.62,4.62,0,0,0,4.53-3.71l.14-.72a19.22,19.22,0,0,1,5.19-9.79A19.82,19.82,0,0,0,30.92,4ZM20.06,18.4q-.14.32-.26.64a1,1,0,0,1-1.87-.71q.14-.37.3-.74a1,1,0,1,1,1.83.8Zm20,2.83a5,5,0,0,1,.19,7.24l-7,7a1.8,1.8,0,0,1-2.55,0l-6.84-6.84a5.18,5.18,0,0,1-.38-7.06,5,5,0,0,1,7.24-.19L32,22.67,33,21.62A5.18,5.18,0,0,1,40.09,21.23Zm-8.91-11a12.86,12.86,0,0,0-8.71,4.42A1,1,0,0,1,21,13.33,14.87,14.87,0,0,1,31.07,8.25a1,1,0,1,1,.11,2Z"/><path class="cls-1" d="M40,57a1,1,0,0,0-1-1H25a1,1,0,0,0-1,1V58a2,2,0,0,0,2,2H38a2,2,0,0,0,2-2Z"/></g></svg>